<svg id="fill" xmlns="http://www.w3.org/2000/svg" width="600" height="600" viewBox="0 0 600 600">
  <title>congruent_pentagon_bright</title>
  <path d="M26.55,600h1.09L48,552.37l51.13,23.45V600h1V575.81l51.28-24.63L172.2,600h1.1l-21-49.25L199.81,528l0.28-.14v-56l47.08-21.49,22.41,50-22.12,51h0l-0.41.91h0l-22,47.79h1.09L248,552.63l52,23.43,50.74-24.48L373.88,600H375l-23.3-48.86,47.85-23.08,49.39,23.62-22,48.32H428l21.82-47.89,49.56,23.7V600h1V575.82l49.52-23L570.3,600h1.07L550.8,552.35l49.2-22v-1.1l-49.57,22.17-20.14-51.1,22.75-50,47,19.59v-1.1l-46.54-19.4,22.25-48.94,0.09-.21-22.13-48.52L600,330.41v-1.1l-46.75,21.46-23-50.32,22.59-49.81L600,269.42v-1.09l-46.7-18.6,22.4-49.39,0.09-.21-21.66-47.58L600,133.5v-1.09l-46.27,19.24-23.43-51.47,21.05-51.33L600,72v-1.1l-48.27-23L571.38,0H570.3L550.82,47.51,500.38,24.68V0h-1V24.68l-51,22.73L428,0h-1.09l20.54,47.81L399.51,69.16,353.07,48.29,375,0h-1.1L352.16,47.88,300,24.45l-52.4,23.82L226.16,0h-1.09L246.7,48.68l-47.1,21.4L152.14,48.41,173.3,0h-1.09l-21,48L100.16,24.68V0h-1V24.68L48.54,48.27,27.63,0H26.54l21.1,48.69L0,70.89V72L48,49.61,70,100.19l-23.69,52L0,132.41v1.09l45.85,19.64-21.31,46.8-0.09.21,22,48.56L0,268.36v1.09l46.89-19.84L70,300.46,46.78,351.24,0,330v1.1l46.37,21.08L24.54,400l-0.09.21,21.93,48.24L0,468.76v1.09l46.8-20.49L70,500.3,47.53,551,0,529.24v1.1L47.12,552ZM199.39,471l-0.29.13v56l-47.17,22.66L129.51,500.3l46.88-99.6h48.54l21.84,48.71Zm1-140.29,52.44-55.48,16.72,25.23-22.91,50.93Zm45.84,21.57-21.32,47.39H176.39L153.87,352l45.77-20.56ZM328.66,300H270.4l-16.84-25.42,46.57-47.19,52.2,23.48Zm24.59-48.72L399,271.82v58.79l-36.43,16.44-33-46.65ZM270.46,301h58.26l32.94,46.52L300,375.29l-52.45-23.45Zm30.06,75.2,61.73-27.85,37.12,52.42-37,52.65-61.82-28V376.16Zm62.66-28.27,36.34-16.4L436.44,348,400,399.85Zm74.2,0.54,62,27.74v49.19l-61.47,28.07-37.32-52.7ZM437,347.17l-37-16.56V271.82l47.26-21.07,22.65,49.65Zm-11.75-147,22-48.14,52,24v50.47l-51.6,23Zm21.58,49.7L399.51,271l-45.84-20.62,23.95-49.7h46.79Zm-94.09.08-52.25-23.5V176l52.71-24.47,23.53,48.65ZM300,175.08l-62-28.5,32.35-45.89h58.27l24.13,49.89Zm-0.5.87v50.59L253,273.7l-52.51-73.82,37-52.47Zm-47.24,98.47-52.68,55.79-52.45-54.69,52.72-74.79Zm-105.83.37-46.28-48.25V176l61.77-28.55,37.32,52.47Zm0.12,1.57,52.19,54.41-45.3,20.35-23.91-50.62Zm29,123.85-22.94,48.74-52.42-23.6V376.16L153,352.44Zm50.28,0,21.36-47.48,52.35,23.43v49.19L247.68,449Zm22.29,49.71L300,426.22l61.72,28L329,499.8H270.46Zm51.92,125-51.63-23.24,22.09-50.91h58.46l21.45,49.85Zm99-47.76-47.74,23-21.45-49.86,32.84-45.73L399,471.82v55.37ZM363.25,453.8L400,401.59l37,52.25-37.47,17.11Zm86,96.95L400,527.18V471.82l37.56-17.15,32.36,45.7Zm100.24,1.09-49.65,23.11-49.69-23.76,20.64-50.38h58.57Zm-20.1-52H470.76L438.5,454.25l61.38-28,52.26,23.64Zm45.27-99.59-22.15,48.73-52.17-23.6V376.15l52.38-24.05Zm-45.41-100-0.09.21,23.14,50.74-52.47,24.09L438,347.59l33-46.85,0.17-.23-22.89-50.17,51.69-23.05L552,250.24ZM574.7,200.14l-22.31,49.19-52-22.91V176l52.85-23ZM499.87,25.55l50.56,22.89L529.21,100.2,552.81,152l-52.93,23-52.14-24L471,100.4l0.09-.2L448.76,48.32ZM400,70l47.83-21.31L470,100.19l-23.12,50.48L400,129.13V70Zm-0.5,60,46.9,21.58-22,48.06H377.62l-23.49-48.57ZM352.65,49.2L399,70v59.09l-45.32,21-24.17-50ZM300,25.55l51.73,23.24-23.09,50.9H270.46L248,49.18ZM200.1,71l47-21.36,22.46,50.54-32.44,46-37-17V71Zm-0.5,59,36.94,17-36.68,52-37-52ZM151.74,49.33L199.1,71v58.17l-36.84,17-32.73-46Zm-102.8-.15L99.66,25.55l51.17,23.36-22.2,50.78H70.83Zm21.88,51.51H128.7l32.64,45.88L99.65,175.08,47.18,152.62ZM25.55,200.14l21.22-46.61L99.16,176v50.45L47.4,248.31Zm22.26,49.08,51.73-21.88,46.31,48.29L128.7,300H70.82Zm23,51.73h57.82l23.89,50.58L99.66,375.28l-52-23.63ZM25.55,400.21l21.73-47.64,51.88,23.59v49.18L47.3,448.05ZM71,500.5L71,500.3,47.71,449l51.94-22.75,52.49,23.64-23.65,50.24-0.1.21,22.61,50L99.65,574.95,48.44,551.46Z" fill="#9aecae"/>
</svg>
