<?xml version="1.0" encoding="utf-8"?>
<!-- Generator: Adobe Illustrator 15.1.0, SVG Export Plug-In . SVG Version: 6.00 Build 0)  -->
<!DOCTYPE svg PUBLIC "-//W3C//DTD SVG 1.1//EN" "http://www.w3.org/Graphics/SVG/1.1/DTD/svg11.dtd">
<svg version="1.1" id="Layer_1" xmlns="http://www.w3.org/2000/svg" xmlns:xlink="http://www.w3.org/1999/xlink" x="0px" y="0px"
	 width="1417.322px" height="312.118px" viewBox="0 0 1417.322 312.118" enable-background="new 0 0 1417.322 312.118"
	 xml:space="preserve">
<path fill="#FFFFFF" d="M1417.323,312.118H0V0h1417.322V312.118z M25.071,241.739h45.132V138.896
	c4.911-4.707,9.408-8.34,13.506-10.903c4.092-2.553,9.004-3.837,14.734-3.837c6.552,0,11.31,2.049,14.276,6.141
	c2.968,4.097,4.452,11.667,4.452,22.72v88.724h45.131V147.18c0-19.232-3.738-34.278-11.208-45.125
	c-7.47-10.848-19.492-16.274-36.071-16.274c-10.438,0-19.548,2.303-27.322,6.91c-7.78,4.602-14.943,9.979-21.491,16.115h-1.228
	l-3.069-19.337H25.071V241.739z M192.388,241.739h122.188v-35.307h-66.009l63.859-93.02V89.467H199.448v35.302h56.795
	l-63.854,92.715V241.739z M348.497,237.288c5.217,5.42,11.712,8.135,19.491,8.135c7.775,0,14.276-2.713,19.492-8.135
	c5.223-5.422,7.83-12.127,7.83-20.107c0-8.186-2.607-14.99-7.83-20.417c-5.216-5.421-11.717-8.136-19.492-8.136
	c-7.779,0-14.274,2.713-19.491,8.136c-5.223,5.427-7.83,12.231-7.83,20.417C340.667,225.161,343.275,231.866,348.497,237.288z
	 M445.35,242.043c0,8.6-1.18,14.84-3.533,18.728s-6.495,5.836-12.432,5.836c-2.254,0-4.297-0.209-6.143-0.614
	c-1.838-0.414-3.781-0.924-5.83-1.533l-7.979,33.152c3.068,1.229,6.706,2.25,10.897,3.068c4.196,0.818,9.464,1.229,15.811,1.229
	c10.438,0,19.132-1.641,26.093-4.912c6.955-3.272,12.537-7.674,16.736-13.201c4.188-5.526,7.155-11.973,8.895-19.338
	c1.739-7.369,2.618-15.25,2.618-23.64V89.467H445.35V242.043z M486.795,60.456c4.906-4.402,7.364-10.079,7.364-17.039
	c0-6.956-2.458-12.587-7.364-16.884c-4.917-4.302-11.16-6.451-18.727-6.451c-7.575,0-13.814,2.149-18.728,6.451
	c-4.912,4.297-7.37,9.928-7.37,16.884c0,6.96,2.458,12.637,7.37,17.039s11.151,6.601,18.728,6.601
	C475.635,67.057,481.878,64.858,486.795,60.456z M516.875,224.241c7.774,6.346,16.938,11.461,27.481,15.35
	c10.533,3.887,20.816,5.83,30.851,5.83c10.233,0,19.237-1.278,27.022-3.836c7.774-2.555,14.32-6.031,19.647-10.438
	c5.315-4.397,9.304-9.563,11.972-15.5c2.658-5.937,3.987-12.382,3.987-19.342c0-6.956-1.229-12.942-3.688-17.958
	c-2.448-5.018-5.676-9.26-9.663-12.742c-3.998-3.479-8.395-6.396-13.202-8.75c-4.815-2.354-9.674-4.452-14.58-6.296
	c-3.896-1.429-7.636-2.808-11.213-4.142c-3.578-1.329-6.756-2.713-9.514-4.147c-2.77-1.429-4.967-3.013-6.606-4.757
	c-1.639-1.734-2.447-3.837-2.447-6.291c0-7.985,5.727-11.977,17.188-11.977c5.316,0,10.644,1.129,15.959,3.377
	c5.327,2.254,10.754,5.427,16.28,9.519l20.257-27.018c-6.556-4.912-14.231-9.364-23.025-13.352
	c-8.805-3.992-19.026-5.991-30.699-5.991c-8.806,0-16.779,1.184-23.944,3.533c-7.165,2.354-13.313,5.581-18.418,9.668
	c-5.117,4.098-9.055,9.109-11.822,15.045c-2.759,5.936-4.146,12.387-4.146,19.342c0,6.346,1.229,11.922,3.688,16.729
	c2.458,4.812,5.626,9.009,9.514,12.587c3.889,3.583,8.186,6.601,12.901,9.06c4.697,2.452,9.404,4.602,14.121,6.445
	c3.878,1.639,7.675,3.123,11.353,4.452c3.688,1.334,7.017,2.813,9.983,4.452c2.958,1.639,5.317,3.428,7.056,5.371
	c1.739,1.949,2.608,4.143,2.608,6.602c0,4.098-1.529,7.266-4.597,9.514c-3.078,2.26-7.985,3.379-14.74,3.379
	c-6.557,0-13.002-1.33-19.338-3.987c-6.347-2.658-13.002-6.651-19.957-11.978L516.875,224.241z M709.062,296.693l28.241-11.668
	c-11.253-20.062-19.447-41.038-24.555-62.935c-5.116-21.9-7.675-43.795-7.675-65.696c0-21.901,2.559-43.797,7.675-65.698
	c5.106-21.901,13.302-42.877,24.555-62.939l-28.241-11.663c-12.892,21.082-22.876,42.977-29.931,65.697
	c-7.065,22.715-10.595,47.584-10.595,74.602c0,27.012,3.528,51.881,10.595,74.602C686.186,253.711,696.17,275.612,709.062,296.693z
	 M756.641,199.526c3.888,9.93,9.214,18.27,15.97,25.02c6.755,6.754,14.681,11.927,23.794,15.504
	c9.104,3.578,18.979,5.373,29.621,5.373c8.396,0,17.089-1.534,26.094-4.603c9.004-3.073,17.198-7.88,24.563-14.431l-18.118-28.553
	c-3.678,2.869-7.775,5.428-12.271,7.676c-4.508,2.253-9.523,3.378-15.051,3.378c-9.822,0-17.958-3.888-24.403-11.667
	c-6.445-7.775-9.675-18.313-9.675-31.62c0-13.301,3.179-23.84,9.524-31.62c6.335-7.78,15.04-11.667,26.093-11.667
	c6.955,0,14.012,2.968,21.188,8.904l20.565-27.937c-5.116-5.321-11.463-9.569-19.038-12.742c-7.574-3.173-16.068-4.762-25.482-4.762
	c-10.434,0-20.467,1.799-30.08,5.376c-9.624,3.583-18.068,8.749-25.334,15.5c-7.266,6.755-13.041,15.1-17.339,25.023
	c-4.297,9.929-6.445,21.236-6.445,33.923C750.814,178.295,752.753,189.603,756.641,199.526z M894.182,199.526
	c4.087,9.93,9.563,18.27,16.419,25.02c6.854,6.754,14.78,11.927,23.795,15.504c9.004,3.578,18.318,5.373,27.932,5.373
	c9.624,0,18.889-1.795,27.792-5.373c8.896-3.577,16.779-8.75,23.636-15.504c6.854-6.75,12.332-15.09,16.43-25.02
	c4.087-9.923,6.136-21.23,6.136-33.923c0-12.687-2.049-23.995-6.136-33.923c-4.098-9.923-9.574-18.268-16.43-25.023
	c-6.855-6.751-14.74-11.917-23.636-15.5c-8.903-3.578-18.168-5.376-27.792-5.376c-9.612,0-18.928,1.799-27.932,5.376
	c-9.015,3.583-16.938,8.749-23.795,15.5c-6.854,6.755-12.332,15.1-16.419,25.023c-4.098,9.929-6.146,21.236-6.146,33.923
	C888.034,178.295,890.084,189.603,894.182,199.526z M941.301,133.983c4.606-7.78,11.611-11.667,21.025-11.667
	c9.215,0,16.17,3.888,20.877,11.667c4.707,7.779,7.065,18.318,7.065,31.62c0,13.306-2.358,23.845-7.065,31.62
	c-4.707,7.779-11.662,11.667-20.877,11.667c-9.414,0-16.419-3.888-21.025-11.667c-4.606-7.775-6.905-18.313-6.905-31.62
	C934.396,152.302,936.694,141.763,941.301,133.983z M1061.193,241.739h45.121V138.896c4.916-4.707,9.414-8.34,13.511-10.903
	c4.099-2.553,9.005-3.837,14.741-3.837c6.545,0,11.302,2.049,14.271,6.141c2.969,4.097,4.457,11.667,4.457,22.72v88.724h45.12
	V147.18c0-19.232-3.736-34.278-11.202-45.125c-7.476-10.848-19.496-16.274-36.065-16.274c-10.443,0-19.548,2.303-27.333,6.91
	c-7.774,4.602-14.94,9.979-21.485,16.115h-1.229l-3.068-19.337h-36.836v152.27H1061.193z M1219.291,285.025l28.241,11.668
	c12.893-21.082,22.875-42.981,29.931-65.698c7.065-22.72,10.594-47.589,10.594-74.602c0-27.018-3.527-51.887-10.594-74.602
	c-7.056-22.72-17.038-44.616-29.931-65.697l-28.241,11.663c11.463,20.062,19.746,41.038,24.863,62.939
	c5.116,21.901,7.676,43.797,7.676,65.698c0,21.901-2.56,43.796-7.676,65.696C1239.037,243.987,1230.754,264.963,1219.291,285.025z
	 M1333.487,301.295c18.008-5.321,31.729-14.07,41.145-26.248s14.12-26.764,14.12-43.748c0-13.506-2.658-23.993-7.984-31.469
	c-5.316-7.465-13.103-11.203-23.325-11.203c-7.785,0-14.431,2.354-19.957,7.062c-5.525,4.712-8.295,10.953-8.295,18.728
	c0,8.189,2.77,14.48,8.295,18.877c5.526,4.408,11.862,6.602,19.027,6.602h2.459c0,7.779-2.968,14.939-8.904,21.491
	c-5.937,6.55-14.53,11.866-25.783,15.964L1333.487,301.295z M1336.715,137.821c5.217,5.422,11.713,8.135,19.498,8.135
	c7.773,0,14.271-2.713,19.486-8.135c5.228-5.421,7.835-12.127,7.835-20.112c0-8.185-2.607-14.99-7.835-20.417
	c-5.217-5.417-11.713-8.135-19.486-8.135c-7.785,0-14.281,2.718-19.498,8.135c-5.218,5.427-7.824,12.232-7.824,20.417
	C1328.891,125.694,1331.498,132.399,1336.715,137.821z"/>
</svg>
