<?xml version="1.0" encoding="utf-8"?>
<!-- Generator: Adobe Illustrator 25.2.0, SVG Export Plug-In . SVG Version: 6.00 Build 0)  -->
<svg version="1.1" id="Layer_1" xmlns="http://www.w3.org/2000/svg" xmlns:xlink="http://www.w3.org/1999/xlink" x="0px" y="0px"
	 viewBox="0 0 359.3 90.5" style="enable-background:new 0 0 359.3 90.5;" xml:space="preserve">
<g>
	<g>
		<path d="M123.9,23.9c0-8.6,4.9-13.6,11.3-13.6c3.6,0,6.4,1.8,8.1,4.2h0.1V1h4v35.7h-4v-3.1h-0.1c-2,2.5-4.3,3.9-8,3.9
			C128.3,37.5,123.9,32.2,123.9,23.9z M143.7,23.9c0-6-2.9-10.2-8.2-10.2c-4.9,0-7.4,4.4-7.4,10.2c0,5.8,2.5,10.1,7.4,10.1
			C141.3,34.1,143.7,29.8,143.7,23.9z"/>
		<path d="M151.6,23.8c0-7.5,4.9-13.6,12.2-13.6c7.7,0,11.9,6,11.9,14.5h-20c0.3,5.2,3.1,9.2,8.3,9.2c3.7,0,6.2-1.8,7.1-5.3h3.9
			c-1.2,5.5-5.2,8.7-11.1,8.7C156.2,37.4,151.6,31.3,151.6,23.8z M155.8,21.7h15.5c-0.3-5.1-2.9-8.3-7.5-8.3
			C159,13.4,156.4,17,155.8,21.7z"/>
		<path d="M177,10.9h4.3l5.3,16.4c0.7,2.3,1.7,5.4,1.7,5.4h0.1c0,0,1-3.2,1.7-5.4l5.4-16.4h4.2l-9.3,25.8h-4.5L177,10.9z"/>
		<path d="M201.3,23.8c0-7.5,4.9-13.6,12.2-13.6c7.7,0,11.9,6,11.9,14.5h-20c0.3,5.2,3.1,9.2,8.3,9.2c3.7,0,6.2-1.8,7.1-5.3h3.9
			c-1.2,5.5-5.2,8.7-11.1,8.7C205.9,37.4,201.3,31.3,201.3,23.8z M205.5,21.7h15.5c-0.3-5.1-2.9-8.3-7.5-8.3
			C208.7,13.4,206.1,17,205.5,21.7z"/>
		<path d="M229.5,1h4v35.7h-4V1z"/>
		<path d="M237.8,23.8c0-7.5,4.8-13.6,12.5-13.6c7.7,0,12.4,6.1,12.4,13.6c0,7.5-4.7,13.6-12.4,13.6
			C242.6,37.4,237.8,31.3,237.8,23.8z M258.6,23.8c0-5.7-2.8-10.2-8.3-10.2c-5.5,0-8.3,4.5-8.3,10.2s2.8,10.2,8.3,10.2
			C255.8,34,258.6,29.5,258.6,23.8z"/>
		<path d="M266.8,10.9h4v3.6h0.1c1.9-2.6,4.5-4.2,8.3-4.2c6.5,0,11.1,5,11.1,13.6c0,8.3-4.2,13.6-11.2,13.6c-3.5,0-6-1-8.1-3.8h-0.1
			V45h-4V10.9z M286.2,23.9c0-5.8-2.4-10.2-7.3-10.2c-5.6,0-8.2,4.6-8.2,10.2s2.2,10.1,8.2,10.1C283.7,34.1,286.2,29.8,286.2,23.9z"
			/>
		<path d="M292.9,23.8c0-7.5,4.9-13.6,12.2-13.6c7.7,0,11.9,6,11.9,14.5h-20c0.3,5.2,3.1,9.2,8.3,9.2c3.7,0,6.2-1.8,7.1-5.3h3.9
			c-1.2,5.5-5.2,8.7-11.1,8.7C297.5,37.4,292.9,31.3,292.9,23.8z M297.2,21.7h15.5c-0.3-5.1-2.9-8.3-7.5-8.3
			C300.4,13.4,297.8,17,297.2,21.7z"/>
		<path d="M325.1,15.2h0.1c1.5-2.5,4.2-4.6,7.7-4.6c0.7,0,1.1,0.1,1.6,0.3v3.9h-0.1c-0.6-0.2-1-0.2-1.8-0.2c-4,0-7.5,3-7.5,7.8v14.3
			h-4V10.9h4V15.2z"/>
		<path d="M336.5,28.3h4.1c0.6,4.5,3.5,5.7,7.4,5.7c4.2,0,6-1.8,6-4.2c0-2.9-2-3.6-6.7-4.6c-5.1-1-9.6-2.1-9.6-7.7
			c0-4.3,3.3-7.1,9.3-7.1c6.4,0,9.5,3,10.1,8.1H353c-0.4-3.4-2.2-4.9-6.1-4.9c-3.7,0-5.2,1.6-5.2,3.7c0,2.8,2.5,3.3,6.9,4.2
			c5.2,1,9.5,2.2,9.5,8.1c0,5.2-4.2,7.8-10.2,7.8C340.9,37.5,336.9,34.1,336.5,28.3z"/>
		<path d="M125.4,52.7h4v5h-4V52.7z M125.4,62.6h4v25.8h-4V62.6z"/>
		<path d="M139,66h0.1c1.8-2.4,4.4-4,8.2-4c5.4,0,8.7,2.9,8.7,8.3v18.1h-4V70.6c0-3.3-2.2-5.2-5.8-5.2c-4.1,0-7.1,2.9-7.1,7.1v15.9
			h-4V62.6h4V66z"/>
		<path d="M159.7,80h4.1c0.6,4.5,3.5,5.7,7.4,5.7c4.2,0,6-1.8,6-4.2c0-2.9-2-3.6-6.7-4.6c-5.1-1-9.6-2.1-9.6-7.7
			c0-4.3,3.3-7.1,9.3-7.1c6.4,0,9.5,3,10.1,8.1h-4.1c-0.4-3.4-2.2-4.9-6.1-4.9c-3.7,0-5.2,1.6-5.2,3.7c0,2.8,2.5,3.3,6.9,4.2
			c5.2,1,9.5,2.2,9.5,8.1c0,5.2-4.2,7.8-10.2,7.8C164,89.2,160.1,85.8,159.7,80z"/>
		<path d="M183.6,62.6h3.7v-8.1h4v8.1h5v3.3h-5v16.8c0,1.8,0.9,2.4,2.6,2.4c0.8,0,1.7-0.2,2.1-0.3h0.1v3.5c-0.9,0.2-2,0.3-3.2,0.3
			c-3.3,0-5.7-1.3-5.7-5V65.9h-3.7V62.6z"/>
		<path d="M200.6,52.7h4v5h-4V52.7z M200.6,62.6h4v25.8h-4V62.6z"/>
		<path d="M208.5,62.6h3.7v-8.1h4v8.1h5v3.3h-5v16.8c0,1.8,0.9,2.4,2.6,2.4c0.8,0,1.7-0.2,2.1-0.3h0.1v3.5c-0.9,0.2-2,0.3-3.2,0.3
			c-3.3,0-5.7-1.3-5.7-5V65.9h-3.7V62.6z"/>
		<path d="M241.9,88.4v-3.5h-0.1c-1.8,2.5-4,4.1-7.8,4.1c-5.3,0-8.7-3.2-8.7-8.5V62.6h4v17.8c0,3.3,2.1,5.3,5.8,5.3
			c4.1,0,6.7-3.1,6.7-7.2V62.6h4v25.8H241.9z"/>
		<path d="M249.8,62.6h3.7v-8.1h4v8.1h5v3.3h-5v16.8c0,1.8,0.9,2.4,2.6,2.4c0.8,0,1.7-0.2,2.1-0.3h0.1v3.5c-0.9,0.2-2,0.3-3.2,0.3
			c-3.3,0-5.7-1.3-5.7-5V65.9h-3.7V62.6z"/>
		<path d="M265.4,75.5c0-7.5,4.9-13.6,12.2-13.6c7.7,0,11.9,6,11.9,14.5h-20c0.3,5.2,3.1,9.2,8.3,9.2c3.7,0,6.2-1.8,7.1-5.3h3.9
			c-1.2,5.5-5.2,8.7-11.1,8.7C270,89.1,265.4,83,265.4,75.5z M269.6,73.4h15.5c-0.3-5.1-2.9-8.3-7.5-8.3
			C272.8,65.1,270.2,68.7,269.6,73.4z"/>
	</g>
	<g>
		<rect x="1.5" y="1.5" width="17.5" height="17.5"/>
		<rect x="19" y="19" width="17.5" height="52.5"/>
		<rect x="1.5" y="71.5" width="17.5" height="17.5"/>
		<path d="M54,1.5V19c14.5,0,26.3,11.8,26.3,26.3S68.5,71.5,54,71.5V89c24.1,0,43.8-19.6,43.8-43.8C97.7,21.1,78.1,1.5,54,1.5z"/>
	</g>
</g>
</svg>
