<?xml version="1.0" encoding="utf-8"?>
<!-- Generator: Adobe Illustrator 15.1.0, SVG Export Plug-In . SVG Version: 6.00 Build 0)  -->
<!DOCTYPE svg PUBLIC "-//W3C//DTD SVG 1.1//EN" "http://www.w3.org/Graphics/SVG/1.1/DTD/svg11.dtd">
<svg version="1.1" id="Layer_1" xmlns="http://www.w3.org/2000/svg" xmlns:xlink="http://www.w3.org/1999/xlink" x="0px" y="0px"
	 width="184.25px" height="62.362px" viewBox="0 0 184.25 62.362" enable-background="new 0 0 184.25 62.362" xml:space="preserve">
<g>
	<path d="M3.9,17.897h7.2l0.6,3.779h0.24c1.28-1.199,2.68-2.25,4.2-3.149c1.52-0.9,3.3-1.351,5.34-1.351
		c3.24,0,5.59,1.061,7.05,3.181s2.19,5.061,2.19,8.819v18.48H21.9v-17.34c0-2.16-0.29-3.64-0.87-4.44c-0.58-0.8-1.51-1.2-2.79-1.2
		c-1.12,0-2.08,0.251-2.88,0.75c-0.801,0.501-1.68,1.211-2.64,2.131v20.1H3.9V17.897z"/>
	<path d="M36.6,42.917l12.479-18.12h-11.1v-6.899h22.08v4.68l-12.48,18.18h12.9v6.9H36.6V42.917z"/>
	<path d="M65.579,42.857c0-1.6,0.51-2.93,1.53-3.99c1.02-1.06,2.289-1.59,3.81-1.59c1.52,0,2.79,0.53,3.81,1.59
		c1.021,1.061,1.53,2.391,1.53,3.99c0,1.56-0.51,2.87-1.53,3.93c-1.02,1.06-2.29,1.59-3.81,1.59c-1.521,0-2.79-0.53-3.81-1.59
		C66.088,45.728,65.579,44.417,65.579,42.857z"/>
	<path d="M86.039,17.897h8.821v29.58c0,1.64-0.172,3.18-0.512,4.62c-0.34,1.439-0.92,2.699-1.739,3.779
		c-0.82,1.08-1.911,1.94-3.271,2.58c-1.36,0.64-3.06,0.96-5.1,0.96c-1.24,0-2.27-0.08-3.09-0.24c-0.819-0.16-1.53-0.359-2.13-0.6
		l1.56-6.479c0.4,0.119,0.78,0.219,1.14,0.3c0.36,0.079,0.76,0.12,1.2,0.12c1.16,0,1.97-0.381,2.43-1.141s0.69-1.979,0.69-3.66
		V17.897z M90.479,13.518c-1.48,0-2.7-0.43-3.66-1.29s-1.44-1.97-1.44-3.33c0-1.359,0.48-2.46,1.44-3.3
		c0.96-0.841,2.18-1.261,3.66-1.261c1.479,0,2.699,0.42,3.66,1.261c0.959,0.84,1.439,1.94,1.439,3.3c0,1.36-0.48,2.47-1.439,3.33
		C93.178,13.088,91.958,13.518,90.479,13.518z"/>
	<path d="M103.979,38.717c1.359,1.041,2.66,1.821,3.9,2.341c1.238,0.52,2.498,0.779,3.779,0.779c1.32,0,2.279-0.219,2.881-0.66
		c0.6-0.439,0.898-1.059,0.898-1.859c0-0.48-0.17-0.909-0.51-1.29c-0.34-0.38-0.801-0.729-1.379-1.05
		c-0.58-0.32-1.23-0.609-1.951-0.87c-0.719-0.26-1.461-0.55-2.219-0.87c-0.922-0.36-1.842-0.78-2.76-1.26
		c-0.922-0.48-1.762-1.07-2.521-1.771c-0.76-0.699-1.379-1.52-1.859-2.46c-0.48-0.939-0.721-2.029-0.721-3.27
		c0-1.359,0.271-2.62,0.811-3.78c0.541-1.16,1.311-2.14,2.311-2.94c0.998-0.799,2.199-1.43,3.6-1.89c1.4-0.459,2.959-0.69,4.68-0.69
		c2.281,0,4.279,0.391,6,1.171c1.719,0.779,3.219,1.649,4.5,2.609l-3.959,5.28c-1.08-0.8-2.141-1.42-3.182-1.86
		c-1.039-0.439-2.08-0.66-3.119-0.66c-2.24,0-3.359,0.78-3.359,2.341c0,0.479,0.158,0.891,0.479,1.229
		c0.32,0.341,0.75,0.65,1.291,0.93c0.539,0.28,1.16,0.551,1.859,0.811c0.699,0.261,1.43,0.53,2.191,0.81
		c0.959,0.36,1.908,0.771,2.85,1.23c0.939,0.46,1.799,1.03,2.58,1.71c0.779,0.681,1.41,1.51,1.889,2.49
		c0.48,0.98,0.721,2.15,0.721,3.51c0,1.36-0.26,2.62-0.779,3.78c-0.521,1.16-1.301,2.17-2.34,3.029
		c-1.041,0.861-2.32,1.541-3.84,2.04c-1.521,0.5-3.281,0.75-5.281,0.75c-1.961,0-3.971-0.38-6.029-1.14
		c-2.061-0.76-3.852-1.76-5.371-3L103.979,38.717z"/>
	<path d="M131.727,45.558c-1.379-4.44-2.068-9.301-2.068-14.58c0-5.28,0.689-10.141,2.068-14.58c1.381-4.44,3.33-8.72,5.852-12.84
		l5.52,2.279c-2.201,3.921-3.801,8.021-4.801,12.301s-1.5,8.56-1.5,12.84s0.5,8.56,1.5,12.84c1,4.279,2.6,8.379,4.801,12.3
		l-5.52,2.28C135.057,54.277,133.107,49.997,131.727,45.558z"/>
	<path d="M153.717,43.817c1-4.28,1.5-8.56,1.5-12.84s-0.5-8.56-1.5-12.84s-2.619-8.38-4.859-12.301l5.52-2.279
		c2.52,4.12,4.471,8.399,5.85,12.84c1.381,4.439,2.07,9.3,2.07,14.58c0,5.279-0.689,10.14-2.07,14.58
		c-1.379,4.439-3.33,8.72-5.85,12.84l-5.52-2.28C151.098,52.196,152.717,48.097,153.717,43.817z"/>
	<path d="M169.377,54.617c2.199-0.801,3.879-1.84,5.039-3.12s1.74-2.68,1.74-4.2h-0.48c-1.4,0-2.639-0.429-3.719-1.29
		c-1.08-0.859-1.621-2.089-1.621-3.689c0-1.52,0.541-2.739,1.621-3.66c1.08-0.92,2.379-1.38,3.9-1.38c1.998,0,3.52,0.73,4.559,2.189
		c1.041,1.461,1.561,3.511,1.561,6.15c0,3.319-0.92,6.17-2.76,8.55s-4.521,4.09-8.041,5.13L169.377,54.617z M170.277,23.417
		c0-1.6,0.51-2.93,1.529-3.99c1.02-1.059,2.289-1.59,3.811-1.59c1.52,0,2.789,0.531,3.809,1.59c1.021,1.061,1.531,2.391,1.531,3.99
		c0,1.561-0.51,2.871-1.531,3.931c-1.02,1.06-2.289,1.59-3.809,1.59c-1.521,0-2.791-0.53-3.811-1.59S170.277,24.978,170.277,23.417z
		"/>
</g>
</svg>
